<svg width="65" height="65" viewBox="0 0 65 65" fill="none" xmlns="http://www.w3.org/2000/svg">
<rect width="65" height="65" fill="#289168"/>
<path fill-rule="evenodd" clip-rule="evenodd" d="M49.4271 42.0482V61.0859H44.9784V58.1448H18.7362V61.0859H14.2875V42.0482H12.7535V39.123H16.4933L18.5828 32.6325C19.1964 30.7229 20.2279 28.9826 22.2327 28.9826H42.2542C44.2643 28.9826 45.4228 30.6859 45.9041 32.6325L47.5175 39.123H50.9558V42.0482H49.4271ZM21.3546 17.7737C21.9523 20.5402 23.7402 21.9261 23.7402 23.3067C23.7402 24.6926 23.1425 26.0732 21.3546 26.0732C19.5667 26.0732 18.9689 24.6926 18.9689 23.3067C18.9689 21.9208 20.7621 20.5402 21.3546 17.7737ZM31.6536 14.3988C32.4841 18.2445 34.9703 20.1699 34.9703 22.0901C34.9703 24.0155 34.1398 25.9357 31.6536 25.9357C29.1675 25.9357 28.337 24.0103 28.337 22.0901C28.337 20.1699 30.8232 18.2445 31.6536 14.3988ZM42.7144 12.5739C43.5449 16.7528 46.0311 18.8369 46.0311 20.9264C46.0311 23.0158 45.2006 25.1052 42.7144 25.1052C40.2283 25.1052 39.3978 23.0158 39.3978 20.9264C39.3925 18.8422 41.884 16.7528 42.7144 12.5739ZM4.85067 61.0806H0V6.34261C0 5.00431 1.08439 3.91992 2.42269 3.91992H62.5773C63.9156 3.91992 65 5.00431 65 6.34261V61.0806H60.1493V8.77059H4.85067V61.0806ZM25.1949 52.2679H38.3398V55.3677H25.1949V52.2679ZM15.7792 45.0474C19.1276 45.1532 21.1747 46.555 21.7037 49.4802H15.7792V45.0474ZM47.5175 45.0474C44.1691 45.1532 42.122 46.555 41.593 49.4802H47.5175V45.0474ZM18.0961 39.1177H45.6185L44.4389 33.6746C44.1162 32.1829 43.1852 30.8922 41.6565 30.8922H22.6241C21.0954 30.8922 20.3125 32.2146 19.8417 33.6746L18.0961 39.1177Z" fill="white"/>
</svg>
