<svg width="65" height="65" viewBox="0 0 65 65" fill="none" xmlns="http://www.w3.org/2000/svg">
<g clip-path="url(#clip0_1381_1139)">
<path d="M49.3903 32.5357C49.0135 31.2206 49.1796 29.8766 49.7536 28.7431C47.0104 27.9725 44.9323 25.5007 44.8417 22.4699H40.4851L45.1125 17.5096C45.7339 16.8436 45.6977 15.7999 45.0316 15.1784C44.3656 14.5569 43.3219 14.5931 42.7004 15.2592L36.449 21.9602L30.5268 11.3851C30.0357 10.5079 29.106 9.96289 28.1005 9.96289H8.26587C6.97057 9.96289 5.82824 10.881 5.55009 12.1461C5.25746 13.4763 3.21237 25.4535 3.21237 25.4535V28.9895C1.79405 29.3246 0.738185 30.5981 0.738185 32.1187C0.738185 33.7719 1.98563 35.1331 3.59057 35.314L0.404806 37.9779C-0.135506 38.4297 -0.134364 39.2605 0.404806 39.7113L2.32802 41.3194H1.55462C0.930646 41.3194 0.424865 41.8253 0.424865 42.4492C0.424865 43.0732 0.930773 43.5789 1.55462 43.5789H9.32606C9.95003 43.5789 10.4558 43.073 10.4558 42.4492C10.4558 41.8252 9.9499 41.3194 9.32606 41.3194H8.55266L10.4759 39.7113C11.0162 39.2595 11.015 38.4287 10.4759 37.9779L6.90633 34.9931C7.09244 31.2769 10.1735 28.3108 13.9348 28.3108C17.811 28.3108 20.9651 31.4605 20.9726 35.335H24.2221L21.0615 37.9778C20.5212 38.4296 20.5223 39.2604 21.0615 39.7112L22.9847 41.3193H22.2113C21.5873 41.3193 21.0815 41.8252 21.0815 42.4491C21.0815 43.073 21.5874 43.5788 22.2113 43.5788H29.9829C30.6068 43.5788 31.1126 43.0729 31.1126 42.4491C31.1126 41.8251 30.6067 41.3193 29.9829 41.3193H29.2095L31.1327 39.7112C31.673 39.2594 31.6718 38.4286 31.1327 37.9778L27.972 35.3351H31.8251C31.8326 31.4607 34.9867 28.3109 38.8628 28.3109C42.5593 28.3109 45.5968 31.176 45.8773 34.8016L48.5117 35.1385L49.8098 34.0006L49.3903 32.5357ZM7.99 38.8447L5.4404 40.9767L2.8908 38.8447L5.4404 36.7128L7.99 38.8447ZM15.3603 22.3554H7.04115L8.52105 13.0611H15.3603V22.3554ZM21.5681 26.7485C20.9442 26.7485 20.4384 26.2426 20.4384 25.6187C20.4384 25.003 20.9387 24.489 21.5681 24.489H24.888C25.5169 24.489 26.0177 25.0026 26.0177 25.6187C26.0177 26.2427 25.5118 26.7485 24.888 26.7485H21.5681ZM28.6467 38.8447L26.0971 40.9767L23.5475 38.8447L26.0971 36.7128L28.6467 38.8447ZM18.659 22.3553V13.0611H27.9145L33.1195 22.3553H18.659Z" fill="#289168"/>
<path d="M51.5853 17.6896C48.9313 17.6684 46.8276 19.8958 46.9644 22.5161C47.0875 24.8713 48.9793 26.7638 51.3504 26.8674C53.8499 26.9764 55.9543 25.0712 56.1315 22.6104C56.3231 19.956 54.2191 17.708 51.5853 17.6896Z" fill="#289168"/>
<path d="M59.7312 47.2436C63.1156 47.1099 65.56 43.9754 64.8887 40.6729L63.5724 34.1984C63.1291 32.0177 61.7954 30.1212 59.8933 28.9665C58.0313 27.836 55.7376 27.491 53.554 28.1165C51.9073 28.5883 50.9549 30.3056 51.4268 31.9523L51.5713 32.4569L53.9717 30.3527L48.7841 37.3583L41.1696 36.3848C40.0302 36.2393 38.9882 37.0449 38.8424 38.1845C38.6968 39.324 39.5025 40.3659 40.6421 40.5117C50.188 41.7318 49.5388 41.6564 49.7306 41.6564C50.3843 41.6564 51.0068 41.3476 51.4018 40.8141L56.7796 33.5513C52.8576 42.8066 53.1507 42.1276 53.0626 42.2952C52.466 43.4303 51.2288 44.0497 49.9948 43.8925C48.9555 43.7586 49.7863 43.8651 45.7849 43.3536C45.6314 43.5749 45.5118 43.8237 45.4349 44.0938C45.129 45.1696 45.5763 46.3176 46.5293 46.903L59.1697 54.6681C60.344 55.3897 61.8815 55.0224 62.6031 53.8477C63.3248 52.6731 62.9574 51.1358 61.7827 50.4142C59.2138 48.8362 59.3503 48.9199 56.7103 47.2982C59.282 47.3055 59.328 47.3336 59.7312 47.2436Z" fill="#289168"/>
</g>
<defs>
<clipPath id="clip0_1381_1139">
<rect width="65" height="65" fill="white"/>
</clipPath>
</defs>
</svg>
