<svg width="65" height="65" viewBox="0 0 65 65" fill="none" xmlns="http://www.w3.org/2000/svg">
<g clip-path="url(#clip0_1381_887)">
<path d="M46.7645 61.0653H40.2273V57.3145C39.7809 57.4513 39.3081 57.5328 38.8186 57.5522C38.5883 57.5614 37.5324 57.5837 36.2927 57.6045V60.5031C36.7397 61.6324 37.3113 62.7214 36.7763 64.3216C37.137 64.7364 37.6672 65 38.26 65H46.7645C47.8508 65 48.7317 64.1192 48.7317 63.0327C48.7317 61.946 47.8508 61.0653 46.7645 61.0653Z" fill="#289168"/>
<path d="M38.7984 40.6347L37.963 40.6407L39.1559 42.515C39.1559 42.515 38.0507 41.4448 32.7438 36.5887L30.1308 30.4921C29.7742 29.6599 28.8108 29.2743 27.9783 29.6311C27.1462 29.9877 26.7607 30.9514 27.1173 31.7836L29.8711 38.2088C29.9639 38.4252 30.1023 38.6194 30.2768 38.7774C35.0837 43.1282 36.8238 44.6863 36.8238 44.6863L33.6388 42.8656V51.5974L29.1539 51.5841C29.1532 51.5841 29.1525 51.5841 29.1518 51.5841C29.1505 51.5841 29.1493 51.5841 29.1481 51.5841C27.7614 51.5841 26.8083 52.9846 27.3189 54.2752L31.0705 63.7561C31.4716 64.7695 32.6519 65.3012 33.7109 64.8216C34.661 64.3917 35.1168 63.2886 34.729 62.3085L32.0453 55.5271C32.0453 55.5271 37.0815 55.5419 38.8266 55.5271C40.2564 55.5151 41.5331 54.2949 41.5376 52.6982L41.5631 43.3875C41.5674 41.8489 40.3083 40.6229 38.7984 40.6347Z" fill="#289168"/>
<path d="M38.9785 35.2327C38.6768 33.2573 36.8306 31.9004 34.8554 32.2022C34.2385 32.2964 33.6822 32.5412 33.2175 32.8934L34.583 36.0796L36.8259 39.1061C38.3075 38.4731 39.2331 36.899 38.9785 35.2327Z" fill="#289168"/>
<path d="M62.5787 61.5697H60.4605V33.928H62.0845C62.8844 33.928 63.533 33.2794 63.533 32.4795C63.533 31.6796 62.8844 31.031 62.0845 31.031H60.4605V2.11822C60.4605 0.948342 59.5122 0 58.3423 0C57.1724 0 56.2241 0.948342 56.2241 2.11822V31.0308H47.7568V29.4699C49.6648 29.4699 50.718 28.1346 50.718 26.725V21.0184C50.718 19.0017 49.9036 17.1755 48.5863 15.8496L48.4943 15.3558L49.9672 13.8029H52.8872C53.7451 13.8029 54.4406 13.1074 54.4406 12.2495V11.0675C54.4406 10.2097 53.7452 9.51414 52.8872 9.51414H49.82C48.9622 9.51414 48.2666 10.2096 48.2666 11.0675C48.2666 12.268 48.2618 12.283 48.2751 12.4108L47.9994 12.7016L46.04 2.19731C45.912 1.51163 45.3134 1.01436 44.616 1.01436H20.4151C19.7176 1.01436 19.119 1.51163 18.9911 2.19731L17.0265 12.7287L16.7249 12.4108C16.738 12.2834 16.7333 12.2678 16.7333 11.0675C16.7333 10.2097 16.0379 9.51414 15.1799 9.51414H12.1127C11.2549 9.51414 10.5593 10.2096 10.5593 11.0675V12.2495C10.5593 13.1073 11.2548 13.8029 12.1127 13.8029H15.0328L16.5313 15.3829L16.4442 15.8497C15.127 17.1756 14.3127 19.0017 14.3127 21.0185V26.7251C14.3127 28.1046 15.3335 29.4701 17.274 29.4701V31.031H8.77588V2.11822C8.77588 0.948342 7.82741 0 6.65766 0C5.48791 0 4.53944 0.948342 4.53944 2.11822V31.0308H2.91546C2.11552 31.0308 1.46692 31.6794 1.46692 32.4794C1.46692 33.2793 2.11552 33.9279 2.91546 33.9279H4.53944V61.5696H2.42123C2.03135 61.5696 1.71511 61.8858 1.71511 62.2757V64.2528C1.71511 64.6426 2.03135 64.9589 2.42123 64.9589H6.65766H10.8941C11.284 64.9589 11.6002 64.6426 11.6002 64.2528V62.2757C11.6002 61.8858 11.284 61.5696 10.8941 61.5696H8.77588V33.928H17.5666C18.0986 35.1288 19.3001 35.967 20.6979 35.967C22.5889 35.967 24.1219 34.4342 24.1219 32.5431V29.4699H25.5135C25.8784 28.7885 26.4677 28.2212 27.2335 27.8928C28.9304 27.1657 30.8802 27.8717 31.7349 29.4699H40.909V32.5431C40.909 34.4341 42.4419 35.967 44.333 35.967C45.7309 35.967 46.9324 35.1288 47.4643 33.928H56.2242V61.5697H54.106C53.7161 61.5697 53.3999 61.886 53.3999 62.2758V64.2529C53.3999 64.6428 53.7161 64.959 54.106 64.959H58.3424H62.5788C62.9687 64.959 63.285 64.6428 63.285 64.2529V62.2758C63.2848 61.886 62.9687 61.5697 62.5787 61.5697ZM20.607 24.7416C18.9481 24.7416 17.6035 23.396 17.6035 21.7361C17.6035 20.0762 18.9483 18.7306 20.607 18.7306C22.2658 18.7306 23.6106 20.0762 23.6106 21.7361C23.6106 23.396 22.2658 24.7416 20.607 24.7416ZM35.893 27.0952H29.1377C28.5341 27.0952 28.0449 26.6059 28.0449 26.0022C28.0449 25.3985 28.5341 24.9093 29.1377 24.9093H35.893C36.4965 24.9093 36.9858 25.3985 36.9858 26.0022C36.9858 26.6059 36.4967 27.0952 35.893 27.0952ZM37.6975 22.931H27.3332C26.7296 22.931 26.2403 22.4417 26.2403 21.838C26.2403 21.2344 26.7296 20.7451 27.3332 20.7451H37.6975C38.301 20.7451 38.7903 21.2344 38.7903 21.838C38.7903 22.4417 38.301 22.931 37.6975 22.931ZM35.9709 13.6843C36.1369 12.5336 37.1267 11.6454 38.3228 11.6454C39.5187 11.6454 40.5085 12.5333 40.6744 13.6843H35.9709ZM38.3228 9.23116C35.7943 9.23116 33.7183 11.1996 33.5431 13.6842H21.6472C20.9906 13.6842 20.3547 13.7718 19.7491 13.9335L21.6186 3.91131H29.693C29.5564 4.11342 29.4766 4.35691 29.4766 4.6192C29.4766 5.3182 30.0434 5.88492 30.7424 5.88492H34.2888C34.9878 5.88492 35.5545 5.3182 35.5545 4.6192C35.5545 4.35691 35.4748 4.11342 35.3382 3.91131H43.4126L45.282 13.9335C44.3355 13.6806 43.6443 13.6842 43.1024 13.6842C42.9271 11.1996 40.8513 9.23116 38.3228 9.23116ZM44.4238 24.7416C42.7649 24.7416 41.4202 23.396 41.4202 21.7361C41.4202 20.0762 42.765 18.7306 44.4238 18.7306C46.0827 18.7306 47.4273 20.0762 47.4273 21.7361C47.4273 23.396 46.0827 24.7416 44.4238 24.7416Z" fill="#289168"/>
</g>
<defs>
<clipPath id="clip0_1381_887">
<rect width="65" height="65" fill="white"/>
</clipPath>
</defs>
</svg>
