<svg width="65" height="65" viewBox="0 0 65 65" fill="none" xmlns="http://www.w3.org/2000/svg">
<g clip-path="url(#clip0_1381_926)">
<path d="M56.0632 40.94H64.5854V29.6764H51.9895C52.7423 30.5854 53.4214 31.7511 53.7229 32.9038C54.3643 34.9755 53.2419 37.2182 51.2149 37.9081C49.1443 38.613 46.8831 37.4807 46.207 35.3255C45.6988 33.7046 46.7385 33.0544 44.0978 32.105C43.0778 31.7374 42.4019 30.8077 42.2882 29.7813C42.2378 29.3257 42.2945 28.8685 42.4787 28.4219C42.2956 28.4668 40.4943 28.813 40.1699 28.8219L39.8392 30.6683C37.658 31.938 36.1906 34.2997 36.1906 37.0056V52.0361C36.1906 53.551 37.4187 54.7793 38.9338 54.7793H40.6017V59.6662C40.6017 62.6121 42.9899 65.0002 45.9359 65.0002C48.8818 65.0002 51.27 62.6121 51.27 59.6662V54.7793H55.8833V57.088C55.8833 57.8632 56.5117 58.4917 57.287 58.4917H64.5854V50.9704V50.9674H58.8174C57.8771 50.9674 57.1147 50.205 57.1147 49.2647C57.1147 48.3243 57.8771 47.562 58.8174 47.562H64.5854V44.3454H56.0632C55.1228 44.3454 54.3605 43.583 54.3605 42.6427C54.3605 41.7023 55.1228 40.94 56.0632 40.94ZM45.7973 47.2599C43.3992 47.2599 41.0183 45.2391 41.0183 42.4248C41.0183 39.7748 43.1665 37.6266 45.8165 37.6266C48.4665 37.6266 50.6147 39.7748 50.6147 42.4248C50.6148 45.1775 48.311 47.2599 45.7973 47.2599Z" fill="#289168"/>
<path d="M50.9983 9.57422H45.5042C44.4114 9.57422 43.4754 10.3574 43.2828 11.4332L43.0135 12.937C44.3779 13.2429 45.4957 14.2632 45.921 15.6695C46.2665 16.8117 46.1523 18.952 45.0376 21.1143C45.2601 20.9862 45.524 20.8558 46.2789 20.3103L47.3929 14.0875H50.6415C51.0238 12.584 51.132 11.0113 50.9983 9.57422Z" fill="#289168"/>
<path d="M58.6263 9.57422C58.5985 11.3573 58.4053 12.6908 58.0935 14.0877H59.3318C59.3318 14.5083 59.3343 15.5637 59.3343 15.9286C59.3343 16.671 59.9362 17.2728 60.6785 17.2728H64.5854V13.2475V9.57422H58.6263Z" fill="#289168"/>
<path d="M12.4323 47.5181L12.2948 46.3627C10.208 46.5769 8.00051 46.4062 5.97447 45.8066L6.17277 47.4728L0.922112 60.7512C0.291536 62.3461 1.07306 64.15 2.66797 64.7807C4.26301 65.4114 6.06676 64.6293 6.69734 63.0348L12.2364 49.0268C12.4258 48.5479 12.4931 48.0295 12.4323 47.5181Z" fill="#289168"/>
<path d="M20.7999 46.0708L20.418 43.0234C18.6475 44.4415 16.6762 45.4292 14.5287 45.9708L14.5746 46.3377L11.5383 61.2763C11.1968 62.9567 12.2821 64.5961 13.9628 64.9376C15.6425 65.2791 17.2825 64.1943 17.6242 62.513L20.7618 47.0754C20.829 46.7449 20.8418 46.4056 20.7999 46.0708Z" fill="#289168"/>
<path d="M36.8766 26.7689C36.6308 25.9354 35.7555 25.4596 34.9223 25.7053L29.3124 27.361C29.842 28.2606 30.1156 29.3219 30.0478 30.4248L30.8004 30.2026L30.3556 31.9143C30.1369 32.7552 30.6414 33.6142 31.4825 33.8327C32.3227 34.0513 33.1822 33.5473 33.4009 32.7057L34.3216 29.1634L35.8126 28.7233C36.6463 28.4772 37.1227 27.6022 36.8766 26.7689Z" fill="#289168"/>
<path d="M12.1072 11.5014C15.1555 11.5014 17.6266 8.92676 17.6266 5.75072C17.6266 2.57469 15.1555 0 12.1072 0C9.05889 0 6.58777 2.57469 6.58777 5.75072C6.58777 8.92676 9.05889 11.5014 12.1072 11.5014Z" fill="#289168"/>
<path d="M19.978 34.6621C19.7465 35.0634 19.4891 35.4721 19.2038 35.8773C16.8583 39.2092 13.7653 40.8079 10.0084 40.6298C6.45589 40.461 4.39785 38.7456 3.20703 36.7328C3.1075 36.5648 2.94437 36.4439 2.75457 36.3977C2.56478 36.3516 2.36406 36.3837 2.19852 36.4874L0.754424 37.3921C0.422187 37.6003 0.316055 38.0341 0.514228 38.3722C2.38615 41.5667 5.48546 43.565 9.85899 43.7729C14.752 44.0046 18.8849 41.8492 21.8391 37.5994C22.4032 36.7877 22.8719 35.9733 23.258 35.2097L19.978 34.6621Z" fill="#289168"/>
<path d="M25.2768 27.3515L16.1808 25.8334L12.0729 16.4432L17.5746 23.4906L19.1307 23.7502V17.1074C19.1307 14.9619 17.4615 13.2227 15.4023 13.2227H8.75317C6.69399 13.2227 5.05566 14.9619 5.05566 17.1074V34.4832C5.99207 36.7742 7.55842 37.8504 10.1344 37.9729C13.116 38.1147 15.4522 36.647 17.1474 34.1904C13.1901 33.53 13.4177 33.5718 13.1975 33.5209C10.9505 33.0016 9.64959 31.1041 9.43161 29.967L7.32419 18.9689L11.9265 29.489C12.2261 30.1739 12.7776 30.6979 13.4485 30.9492C13.7831 31.0746 12.9883 30.9211 24.4343 32.8313C25.8869 33.0741 27.2525 32.0427 27.485 30.5304C27.7162 29.0263 26.7372 27.5951 25.2768 27.3515Z" fill="#289168"/>
<path d="M56.0147 6.45716C55.7896 5.59858 54.9391 5.09229 54.1148 5.3269C53.32 5.55313 52.7965 6.41069 53.0333 7.31854C53.5025 9.10743 53.5819 11.7906 53.0948 14.0384C52.6926 15.6752 52.4798 16.4303 51.4486 18.205C50.8869 19.2076 49.5921 20.6413 49.2421 20.9359C46.5454 23.4738 43.4067 24.6658 40.0112 25.6171C39.7701 25.6843 39.6627 25.8999 39.6974 26.1033C39.7362 26.3312 39.945 26.485 40.166 26.4443C43.8027 25.7709 47.1812 24.8307 50.3544 22.3262C50.7666 22.0327 52.3468 20.5804 53.1325 19.4353C53.9597 18.2643 54.671 17.1368 55.4751 14.7137C56.5121 11.3247 56.3208 7.62983 56.0147 6.45716Z" fill="#289168"/>
<path d="M43.6485 16.358C43.3882 15.4975 42.5078 15.0196 41.6817 15.2908C40.898 15.548 40.3727 16.4228 40.6762 17.4009C40.7513 17.4876 40.8231 17.9712 40.8318 18.0889C40.9435 18.8523 40.7478 19.6087 40.4528 20.2567C39.9323 21.3281 39.2429 21.8474 38.475 22.4223C38.3445 22.5207 38.2814 22.6976 38.3301 22.8675C38.3917 23.082 38.6086 23.2039 38.8147 23.1397C39.6399 22.882 40.4132 22.6848 41.6163 21.6961C41.7575 21.5575 42.3525 20.9933 42.6547 20.4832C43.6213 18.9507 43.8727 17.0995 43.6485 16.358Z" fill="#289168"/>
<path d="M51.4389 33.5536C51.0144 31.9251 49.8 30.5546 48.4538 29.8041C47.0375 29.0655 45.9592 29.0815 45.03 29.0821C44.8689 29.0825 44.7177 29.1876 44.6621 29.3554C44.5918 29.5672 44.6997 29.7982 44.9028 29.8714L44.9465 29.887C45.7524 30.1775 46.5747 30.4551 47.3942 31.3528C48.0805 32.1448 48.4359 33.023 48.4102 33.9871C48.4081 33.9987 48.4029 34.0064 48.3962 34.0211C48.3693 35.2571 49.4618 35.9968 50.4499 35.6604C51.2021 35.4043 51.7452 34.558 51.4389 33.5536Z" fill="#289168"/>
</g>
<defs>
<clipPath id="clip0_1381_926">
<rect width="65" height="65" fill="white"/>
</clipPath>
</defs>
</svg>
