<svg width="65" height="65" viewBox="0 0 65 65" fill="none" xmlns="http://www.w3.org/2000/svg">
<g clip-path="url(#clip0_1381_1014)">
<path d="M63.7405 27.4171L60.5791 26.811C59.7375 26.6497 58.9244 27.201 58.7629 28.0427C58.5044 29.3906 58.5163 29.3081 58.5025 29.4353L58.1716 29.6727L58.2265 18.7308C58.2301 18.0166 57.7241 17.4011 57.0225 17.2667L32.6842 12.6001C31.983 12.465 31.285 12.8501 31.0239 13.5151L27.0175 23.7276L26.7773 23.3523C26.7887 23.3113 26.7998 23.27 26.8077 23.2275L27.0504 21.9622C27.2117 21.1206 26.6604 20.3076 25.8187 20.146L22.6573 19.5399C21.8157 19.3785 21.0026 19.9299 20.8411 20.7716L20.5985 22.0369C20.4371 22.8786 20.9885 23.6916 21.8302 23.8531L24.8049 24.4234L26.0074 26.3015L25.8782 26.6307C24.291 27.6808 23.1107 29.3435 22.724 31.3601L21.576 37.3479C21.2907 38.835 22.2654 40.2719 23.7525 40.557L24.0378 40.6117L23.4451 43.7022C23.0805 45.6039 24.3266 47.4412 26.2282 47.8059C26.2541 47.8109 26.28 47.8146 26.3059 47.8189H20.4455C19.8173 47.8189 19.3081 48.3281 19.3081 48.9563V51.2895C19.3081 51.9177 19.8173 52.4269 20.4455 52.4269H32.8371C33.4653 52.4269 33.9745 51.9177 33.9745 51.2895V48.9563C33.9745 48.3281 33.4653 47.8189 32.8371 47.8189H27.4768C28.8768 47.5802 30.0486 46.4997 30.3317 45.0226L30.9243 41.932L34.0357 42.5286L33.8499 43.4985C33.704 44.2595 34.2027 44.9948 34.9636 45.1408L42.8679 46.6564C43.6288 46.8022 44.3641 46.3036 44.5101 45.5426L44.696 44.5728L47.8074 45.1694L47.2147 48.2598C46.8501 50.1614 48.0962 51.9988 49.9978 52.3636C51.9034 52.7283 53.7375 51.4789 54.1013 49.5805L54.6939 46.4899L54.9792 46.5446C56.4663 46.8298 57.9032 45.8554 58.1883 44.3682L59.3364 38.3804C59.7231 36.3636 59.2415 34.3824 58.1553 32.8197L58.1574 32.4377L59.9381 31.1598L62.913 31.7302C63.7546 31.8916 64.5677 31.3402 64.7292 30.4985L64.9718 29.2332C65.1337 28.3916 64.5822 27.5784 63.7405 27.4171ZM31.9023 34.0557C31.5822 35.725 29.9703 36.8191 28.302 36.4992C26.6337 36.1793 25.5408 34.5667 25.8608 32.8974C26.1809 31.2281 27.7928 30.134 29.4611 30.4539C31.1294 30.7739 32.2223 32.3866 31.9023 34.0557ZM31.2992 25.5448C30.7062 25.431 30.1164 25.3938 29.539 25.4234L33.3357 15.7455L41.456 17.3025C41.2797 17.4793 41.1526 17.7088 41.1019 17.9726C40.9671 18.6757 41.4278 19.3548 42.1308 19.4896L45.6975 20.1735C46.4006 20.3083 47.0797 19.8476 47.2145 19.1448C47.265 18.8811 47.2319 18.6207 47.1334 18.3912L55.2538 19.9482L55.2015 30.344C54.2996 29.9303 53.6282 29.8262 53.0578 29.7168C53.363 27.1812 51.662 24.806 49.1093 24.3166C46.5666 23.8287 44.0989 25.4084 43.4436 27.8735L31.2992 25.5448ZM44.5311 40.9253C44.415 41.5311 43.8295 41.9303 43.2212 41.8137L36.4275 40.5112C35.8205 40.3948 35.4228 39.8084 35.5391 39.2013C35.6555 38.5942 36.2419 38.1966 36.849 38.3129L43.6427 39.6154C44.2497 39.7319 44.6476 40.3183 44.5311 40.9253ZM47.1489 37.0855C47.0328 37.6914 46.4472 38.0904 45.8389 37.9739L35.4158 35.9754C34.8089 35.859 34.4111 35.2726 34.5274 34.6655C34.6438 34.0584 35.2306 33.661 35.8373 33.7771L46.2604 35.7756C46.8674 35.892 47.2651 36.4784 47.1489 37.0855ZM45.8857 28.3416C46.2744 27.2162 47.4411 26.5138 48.644 26.7446C49.8417 26.9741 50.674 28.0445 50.6163 29.2485L45.8857 28.3416ZM55.8547 38.6484C55.5346 40.3177 53.9227 41.4118 52.2544 41.0919C50.5861 40.7719 49.4932 39.1594 49.8132 37.4901C50.1333 35.8208 51.7452 34.7267 53.4135 35.0466C55.0819 35.3665 56.1749 36.9791 55.8547 38.6484Z" fill="#289168"/>
<path d="M19.6619 37.7966C20.5453 35.2448 20.0851 36.5738 20.6433 34.9613C20.8345 34.4092 20.5418 33.8066 19.9897 33.6156C19.4375 33.4243 18.8348 33.7171 18.6438 34.2693C17.9328 36.3234 18.3634 35.0793 17.3971 37.8703L12.8143 38.456L8.51028 32.6434L10.7261 34.1841C11.099 32.8828 10.3463 31.5258 9.04501 31.153C7.38966 30.6787 5.56991 30.8932 4.03556 31.8247C2.53243 32.7372 1.47859 34.2359 1.1282 35.9592L0.0880672 41.0755C-0.442852 43.6871 1.49078 46.1622 4.16353 46.2679C4.4851 46.3399 4.54438 46.3169 6.55063 46.3111C6.22614 46.5104 3.11311 48.4227 2.54233 48.7735C1.61417 49.3437 1.32383 50.5584 1.89411 51.4866C2.46502 52.4159 3.68021 52.7045 4.60723 52.1349L14.5959 45.9986C15.349 45.536 15.7026 44.6288 15.4609 43.7786C15.4179 43.6275 15.3573 43.4854 15.283 43.3528C12.3463 43.7282 12.7911 43.6713 11.8221 43.7951C10.6762 43.9416 9.6215 43.2779 9.20891 42.2747C8.59293 40.7754 6.89607 36.6455 6.28949 35.169L10.7457 41.1869C11.1022 41.6679 11.6891 41.9141 12.2752 41.8389L19.2485 40.9477C20.149 40.8327 20.7857 40.0094 20.6706 39.1089C20.5931 38.5007 20.1914 38.0137 19.6619 37.7966Z" fill="#289168"/>
<path d="M10.6276 30.1166C12.6023 30.1166 14.203 28.5158 14.203 26.5412C14.203 24.5666 12.6023 22.9658 10.6276 22.9658C8.653 22.9658 7.05225 24.5666 7.05225 26.5412C7.05225 28.5158 8.653 30.1166 10.6276 30.1166Z" fill="#289168"/>
</g>
<defs>
<clipPath id="clip0_1381_1014">
<rect width="65" height="65" fill="white"/>
</clipPath>
</defs>
</svg>
