<svg width="65" height="65" viewBox="0 0 65 65" fill="none" xmlns="http://www.w3.org/2000/svg">
<path d="M62.9905 63.0874L55.3732 55.4701L62.6398 51.8368L42.873 44.5547L50.1553 64.3214L53.7875 57.0549L61.4059 64.6722C61.6244 64.8907 61.9113 65.0005 62.1982 65.0005C62.4851 65.0005 62.7721 64.8907 62.9905 64.6722C63.4288 64.2339 63.4288 63.5257 62.9905 63.0874Z" fill="#289168"/>
<path d="M14.6384 29.1376H16.3922C16.4314 28.9852 16.492 28.8418 16.5468 28.6961C16.5738 28.6244 16.5917 28.5493 16.6219 28.4798C16.7294 28.2332 16.8561 27.9979 17.004 27.7759C17.0377 27.7267 17.079 27.684 17.1138 27.6359C17.236 27.4667 17.366 27.3053 17.5106 27.1551C17.5767 27.0867 17.6484 27.0274 17.7179 26.9634C17.8467 26.8458 17.9779 26.7337 18.1202 26.6317C18.2031 26.5712 18.2883 26.5163 18.3757 26.4625C18.5203 26.3717 18.6694 26.2921 18.824 26.2182C18.9171 26.1746 19.0078 26.1308 19.1031 26.0938C19.2746 26.0265 19.4515 25.975 19.6331 25.9279C19.7206 25.9066 19.8035 25.8775 19.8919 25.8606C20.1654 25.8091 20.4444 25.7754 20.7325 25.7754C21.0206 25.7754 21.2996 25.8091 21.5731 25.8606C21.6615 25.8774 21.7446 25.9066 21.8319 25.9279C22.0135 25.975 22.1906 26.0265 22.3619 26.0938C22.4572 26.1308 22.5479 26.1746 22.641 26.2182C22.7956 26.2922 22.9447 26.3717 23.0893 26.4625C23.1767 26.5163 23.2618 26.5712 23.3448 26.6317C23.4871 26.7337 23.6183 26.8458 23.7471 26.9634C23.8166 27.0273 23.8883 27.0867 23.9544 27.1551C24.099 27.3053 24.229 27.4667 24.3512 27.6359C24.386 27.6842 24.4273 27.7267 24.461 27.7759C24.6089 27.9979 24.7356 28.2332 24.8431 28.4798C24.8733 28.5492 24.8914 28.6244 24.9181 28.6961C24.9731 28.8418 25.0335 28.9853 25.0728 29.1376H34.323C34.3622 28.9852 34.4227 28.8418 34.4776 28.6961C34.5045 28.6244 34.5224 28.5493 34.5526 28.4798C34.6601 28.2332 34.7868 27.9979 34.9347 27.7759C34.9684 27.7267 35.0098 27.684 35.0446 27.6359C35.1667 27.4667 35.2967 27.3053 35.4413 27.1551C35.5074 27.0867 35.5792 27.0274 35.6486 26.9634C35.7775 26.8458 35.9086 26.7337 36.0509 26.6317C36.1338 26.5712 36.219 26.5163 36.3065 26.4625C36.4511 26.3717 36.6001 26.2921 36.7547 26.2182C36.8478 26.1746 36.9386 26.1308 37.0338 26.0938C37.2053 26.0265 37.3823 25.975 37.5638 25.9279C37.6513 25.9066 37.7342 25.8775 37.8227 25.8606C38.0961 25.8091 38.3752 25.7754 38.6632 25.7754C38.9513 25.7754 39.2303 25.8091 39.5038 25.8606C39.5923 25.8774 39.6753 25.9066 39.7626 25.9279C39.9442 25.975 40.1213 26.0265 40.2927 26.0938C40.3879 26.1308 40.4787 26.1746 40.5717 26.2182C40.7263 26.2922 40.8754 26.3717 41.02 26.4625C41.1075 26.5163 41.1925 26.5712 41.2755 26.6317C41.4179 26.7337 41.549 26.8458 41.6779 26.9634C41.7473 27.0273 41.819 27.0867 41.8852 27.1551C42.0298 27.3053 42.1598 27.4667 42.2819 27.6359C42.3167 27.6842 42.3581 27.7267 42.3917 27.7759C42.5396 27.9979 42.6663 28.2332 42.7738 28.4798C42.8041 28.5492 42.8221 28.6244 42.8489 28.6961C42.9038 28.8418 42.9643 28.9853 43.0035 29.1376H44.7574C45.1048 29.1376 45.3872 28.8563 45.3872 28.509V24.164C45.3872 23.8165 45.1048 23.5342 44.7574 23.5342H42.0251H17.3705H14.6382C14.2908 23.5342 14.0084 23.8167 14.0084 24.164V28.509C14.0085 28.8563 14.2909 29.1376 14.6384 29.1376Z" fill="#289168"/>
<path d="M36.2834 16.3014C36.01 15.9181 35.564 15.6895 35.0932 15.6895H30.819V21.2929H39.8484L36.2834 16.3014Z" fill="#289168"/>
<path d="M28.5774 15.6895H24.3042C23.8324 15.6895 23.3863 15.9181 23.1128 16.3014L19.5479 21.2929H28.5773V15.6895H28.5774Z" fill="#289168"/>
<path d="M20.7327 28.0176C19.4965 28.0176 18.4913 29.0228 18.4913 30.2589C18.4913 31.4951 19.4965 32.5003 20.7327 32.5003C21.9688 32.5003 22.974 31.4951 22.974 30.2589C22.974 29.0228 21.9688 28.0176 20.7327 28.0176Z" fill="#289168"/>
<path d="M38.6637 28.0176C37.4276 28.0176 36.4224 29.0228 36.4224 30.2589C36.4224 31.4951 37.4276 32.5003 38.6637 32.5003C39.8999 32.5003 40.9051 31.4951 40.9051 30.2589C40.9051 29.0228 39.8997 28.0176 38.6637 28.0176Z" fill="#289168"/>
<path d="M37.543 0H21.8534V5.60346V6.7242H37.5419L37.543 0Z" fill="#289168"/>
<path d="M8.40511 60.5173C7.16897 60.5173 6.16375 59.5121 6.16375 58.2759V6.7242C6.16375 5.48806 7.16897 4.48284 8.40511 4.48284H19.612V0H5.04301C3.18937 0 1.68091 1.50846 1.68091 3.3621V61.6379C1.68091 63.4915 3.18937 65 5.04301 65H48.017L46.3651 60.5173H8.40511Z" fill="#289168"/>
<path d="M53.2327 6.7242V45.9819L57.7154 47.6338V3.3621C57.7155 1.50846 56.2071 0 54.3534 0H39.7844V4.48272H50.9913C52.2275 4.48272 53.2327 5.48806 53.2327 6.7242Z" fill="#289168"/>
<path d="M8.40527 58.2754H45.5393L39.0909 40.7713L50.9914 45.1555V6.72363H39.7845C39.7845 7.95978 38.7782 8.96499 37.5432 8.96499H21.8535C20.6174 8.96499 19.6122 7.95978 19.6122 6.72363H8.40527V58.2754ZM11.7672 24.1638C11.7672 22.5813 13.0549 21.2926 14.6373 21.2926H16.7946L21.2896 14.9988C21.9833 14.0283 23.1096 13.4478 24.3031 13.4478H35.092C36.2866 13.4478 37.4129 14.0284 38.1066 14.9988L42.6016 21.2926H44.7578C46.3413 21.2926 47.629 22.5815 47.629 24.1638V28.5088C47.629 30.0913 46.3413 31.3788 44.7578 31.3788H42.9871C42.4861 33.3075 40.7468 34.7409 38.6634 34.7409C36.58 34.7409 34.8407 33.3076 34.3398 31.3788H25.0559C24.555 33.3075 22.8157 34.7409 20.7323 34.7409C18.649 34.7409 16.9096 33.3076 16.4087 31.3788H14.6369C13.0544 31.3788 11.7669 30.0911 11.7669 28.5088V24.1638H11.7672ZM12.888 40.3442H29.6984C30.3181 40.3442 30.8191 40.8452 30.8191 41.465C30.8191 42.0848 30.3181 42.5857 29.6984 42.5857H12.888C12.2682 42.5857 11.7672 42.0848 11.7672 41.465C11.7672 40.8452 12.2682 40.3442 12.888 40.3442ZM12.888 45.9477H29.6984C30.3181 45.9477 30.8191 46.4487 30.8191 47.0684C30.8191 47.6882 30.3181 48.1892 29.6984 48.1892H12.888C12.2682 48.1892 11.7672 47.6882 11.7672 47.0684C11.7672 46.4487 12.2682 45.9477 12.888 45.9477ZM12.888 51.5512H29.6984C30.3181 51.5512 30.8191 52.0521 30.8191 52.6719C30.8191 53.2917 30.3181 53.7926 29.6984 53.7926H12.888C12.2682 53.7926 11.7672 53.2917 11.7672 52.6719C11.7672 52.0521 12.2682 51.5512 12.888 51.5512Z" fill="#289168"/>
</svg>
