<svg width="65" height="65" viewBox="0 0 65 65" fill="none" xmlns="http://www.w3.org/2000/svg">
<g clip-path="url(#clip0_1381_914)">
<path d="M64.2772 28.142L33.9946 0.856833C33.1636 0.108348 31.9013 0.107473 31.0694 0.855082L0.724671 28.1402C0.0514724 28.7456 -0.179201 29.7035 0.145361 30.5489C0.469267 31.3939 1.281 31.9522 2.18662 31.9522H9.0543V62.5202C9.0543 63.7278 10.0332 64.7065 11.2404 64.7065H53.7599C54.9673 64.7065 55.946 63.7276 55.946 62.5202V31.9522H62.8137C63.7189 31.9522 64.5302 31.3944 64.8545 30.5498C65.1793 29.705 64.9497 28.7475 64.2772 28.142ZM27.4716 40.7414H37.5287V42.1627C37.5287 44.9352 35.2729 47.1909 32.5 47.1909C29.7271 47.1909 27.4714 44.9352 27.4714 42.1627L27.4716 40.7414ZM51.5737 60.3336H34.6798C34.6829 60.2892 34.6866 60.2447 34.6866 60.1994V51.3041C38.8193 50.3157 41.9016 46.5932 41.9016 42.1625V40.7412H43.3227C44.5301 40.7412 45.5088 39.7623 45.5088 38.5549C45.5088 37.3477 44.5299 36.3685 43.3227 36.3685H40.0978V31.3403C40.0978 30.1327 39.1189 29.1539 37.9117 29.1539C36.7045 29.1539 35.7255 30.1329 35.7255 31.3403V36.3685H29.2757V31.3403C29.2757 30.1327 28.2967 29.1539 27.0895 29.1539C25.8821 29.1539 24.9034 30.1329 24.9034 31.3403V36.3685H21.6781C20.4707 36.3685 19.4919 37.3479 19.4919 38.5549C19.4919 39.7625 20.4709 40.7412 21.6781 40.7412H23.0991V42.1625C23.0991 46.593 26.1815 50.3157 30.3141 51.3041V60.1994C30.3141 60.2447 30.3181 60.2892 30.3209 60.3336H13.427V30.7459L32.5007 13.7461L51.5735 30.7459L51.5737 60.3336ZM54.5928 27.5797L33.9554 9.18559C33.1266 8.44651 31.875 8.44651 31.0462 9.18515L10.4079 27.5797H7.88846L32.5302 5.42237L57.1215 27.5797H54.5928Z" fill="#289168"/>
</g>
<defs>
<clipPath id="clip0_1381_914">
<rect width="65" height="65" fill="white"/>
</clipPath>
</defs>
</svg>
