<svg width="65" height="65" viewBox="0 0 65 65" fill="none" xmlns="http://www.w3.org/2000/svg">
<path d="M40.8789 36.8674L31.8906 39.3811L25.6953 34.2014C24.375 33.0588 22.1406 32.7795 20.6933 33.4905L7.69334 39.9651C6.24607 40.7014 5.15428 42.6819 5.28123 44.383L5.71287 52.4573L3.40232 54.7932C2.28514 55.9358 1.92967 57.8147 2.53904 58.9826L4.72264 63.2991C5.33201 64.467 6.80467 65.0002 8.17576 64.2893L9.87693 63.4514C8.42967 60.5569 9.62303 57.0276 12.5176 55.5803C15.4121 54.133 18.9414 55.3264 20.3887 58.2209L33.9726 51.4416C32.5254 48.5471 33.7187 45.0178 36.6133 43.5705C39.5078 42.1233 43.0371 43.3166 44.4844 46.2112L45.5508 45.7034C46.7949 45.0686 47.3281 43.6721 46.7187 42.5041L44.5605 38.2385C43.7988 37.1213 42.2246 36.4866 40.8789 36.8674ZM16.1484 47.2522L8.45506 51.0608L8.12498 44.2815C8.12498 43.6467 8.65818 42.8088 8.96287 42.6057L12.8984 40.6506L16.1484 47.2522ZM18.7383 45.9065L15.4375 39.3557L21.9629 36.1565C22.2929 36.0295 23.3594 36.0803 23.8164 36.4612L28.9961 40.8537L18.7383 45.9065Z" fill="#289168"/>
<path d="M32.0683 22.4451L32.6523 23.1814C34.3788 21.2264 37.4257 21.0486 39.3554 22.826C41.3105 24.5525 41.4882 27.5994 39.7109 29.5291L48.8515 37.8318C50.5781 35.8768 53.6249 35.699 55.5546 37.4764C57.5097 39.2029 57.6874 42.2498 55.9101 44.1795L57.0781 45.2205C58.0175 46.0076 59.2871 45.9568 60.0234 45.1951L62.664 42.2752C63.4257 41.4373 63.5781 39.9393 62.9179 38.7967L61.6738 36.41L63.8066 30.1639C64.2636 28.8689 63.832 27.0662 62.8671 26.2029L54.0312 18.281C53.0663 17.367 51.2636 17.1639 49.9687 17.6971L43.9765 20.3885L43.5703 12.2889C43.5449 11.9588 43.2656 11.7049 42.9355 11.7303C42.6054 11.7557 42.3515 12.035 42.3769 12.365L42.7324 19.6521L37.5019 16.4021C36.5117 15.7928 35.1913 15.9959 34.455 16.7576L31.8906 19.6268C31.1542 20.4139 31.1796 21.658 32.0683 22.4451ZM54.5644 30.0369L58.5507 25.5935L61.2421 27.9803C61.496 28.1834 61.6738 28.9959 61.5468 29.4529L59.7949 34.7088L54.5644 30.0369ZM43.2402 24.9588L45.8808 22.0896L50.9335 19.8553C51.4414 19.6267 52.2031 19.8045 52.4316 20.0076L56.7988 23.9685L48.0136 33.6424L42.8593 28.9959C43.3925 27.7517 43.5703 26.3807 43.2402 24.9588Z" fill="#289168"/>
<path d="M2.99615 22.8258L5.35747 26.8883C5.99224 28.0055 7.4649 28.4117 8.58208 27.777L8.98833 27.5485L10.1563 29.6051C10.461 30.1383 11.1465 30.316 11.7559 30.0113L12.7461 29.4274C13.2793 29.1227 13.4571 28.4371 13.1524 27.8277L11.9844 25.7711L24.629 18.4078C25.7461 17.7731 26.1524 16.3004 25.5176 15.1832L23.1563 11.1207C22.6739 10.3082 21.6836 9.82579 20.7442 10.0035L15.5391 4.54454C14.6504 3.60509 13.0001 3.37657 11.8829 4.01134L2.36138 9.52111C1.24419 10.1559 0.660208 11.7555 1.01568 12.9996L3.1231 20.1852C2.53911 20.9469 2.41216 22.0133 2.99615 22.8258ZM18.5352 15.8942C18.0528 15.0817 18.3575 13.9645 19.17 13.482C19.9825 12.9996 21.0997 13.3043 21.5821 14.1168C22.0645 14.9293 21.7598 16.0465 20.9473 16.5289C20.1094 17.0113 18.9922 16.7067 18.5352 15.8942ZM5.17974 18.8395L3.30083 12.4156C3.25005 12.1871 3.42779 11.7809 3.60552 11.6539L13.127 6.11876C13.3047 5.99181 13.7618 6.06798 13.8887 6.24571L18.5352 11.0699L5.17974 18.8395ZM6.22075 22.9527C5.73833 22.1402 6.04302 21.0231 6.85552 20.5406C7.66802 20.0582 8.78521 20.3629 9.26763 21.1754C9.75005 21.9879 9.44536 23.1051 8.63286 23.5875C7.82036 24.1207 6.70318 23.7652 6.22075 22.9527Z" fill="#289168"/>
<path d="M36.6895 11.9843L30.0879 4.59559C29.6055 4.06239 29.6817 3.17372 30.2149 2.71669L32.3731 0.83778C32.9063 0.355358 33.7949 0.43153 34.252 0.964733L40.8535 8.30262C41.3359 8.83583 41.2598 9.7245 40.7266 10.1815L38.5684 12.0604C38.0352 12.5936 37.2227 12.5175 36.6895 11.9843Z" fill="#289168"/>
<path d="M36.0039 56.418V61.4453C36.0039 63.1211 39.6348 64.4668 44.0781 64.4668C48.5215 64.4668 52.1523 63.1211 52.1523 61.4453V56.3926C52.1523 54.7168 48.5215 53.3711 44.0781 53.3711C39.5586 53.3711 36.0039 54.7168 36.0039 56.418ZM39.5078 56.418C39.5078 55.4785 41.5898 54.7422 44.0781 54.7422C46.6426 54.7422 48.6484 55.4785 48.6484 56.418C48.6484 57.3574 46.5664 58.0938 44.0781 58.0938C41.5137 58.0938 39.5078 57.3574 39.5078 56.418Z" fill="#289168"/>
</svg>
